<?xml version="1.0" encoding="utf-8" ?><svg xmlns="http://www.w3.org/2000/svg" xmlns:xlink="http://www.w3.org/1999/xlink" width="32" height="32" viewBox="0 0 32 32"><clipPath id="cl_3"><rect x="1.9073486e-06" y="-1.9073486e-06" width="31.999998" height="32"/></clipPath><g clip-path="url(#cl_3)"><path fill="#1C1A1B" transform="matrix(0.0996885 0 0 0.0987654 -8.77258 -9.48148)" d="M226.22 119.875C228.057 119.876 232.055 119.274 233.397 120.476C234.209 121.204 233.946 128.105 233.308 128.892C225.547 130.889 220.161 133.987 218.073 142.357C217.719 143.774 217.493 146.585 217.888 147.983C219.819 154.817 223.398 161.298 226.404 167.741L240.257 197.406C243.418 204.097 247.412 212.095 250.121 218.854C250.734 216.433 255.21 207.363 256.463 204.686L273.892 166.996C276.649 160.953 280.295 154.393 281.871 147.997C282.697 144.649 281.072 139.569 279.121 136.734C275.758 131.843 271.755 130.15 266.195 128.999C266.057 126.012 266.053 122.898 266.009 119.897L320.276 119.958C330.106 119.95 340.944 119.615 350.658 120.027C350.352 122.528 350.446 126.548 350.527 129.084C331.85 130.58 329.245 141.675 322.224 156.595L303.456 197.231C296.195 212.485 289.041 227.789 281.993 243.143L275.642 256.768C274.513 259.187 273.012 262.13 272.096 264.572C272.856 266.452 273.928 268.337 274.742 270.223C280.32 283.152 287.499 295.833 292.744 308.856L311.895 267.687L320.563 249.077C321.707 246.581 322.784 244.093 323.896 241.587C328.219 231.855 322.89 221.152 312.194 219.084C311.982 216.376 312.006 212.444 312.089 209.755C319.863 210.314 330.998 210.019 338.875 210L392.307 209.823C392.233 213.038 392.176 215.904 392.296 219.118C375.79 221.164 373.121 228.915 366.709 242.514L357.698 261.96L314.642 353.798L300.624 383.765C299.53 386.113 293.282 399.913 292.288 400.771C291.524 400.905 291.885 400.963 291.182 400.529C289.025 394.758 284.303 385.164 281.575 379.403L268.294 351.034L226.804 262.202L185.799 173.696C182.266 166.014 178.691 158.351 175.073 150.708C168.364 136.73 165.767 131.095 149.493 128.96C149.518 125.896 149.516 123.114 149.389 120.054C157.1 119.615 167.571 119.934 175.435 119.946C192.363 120.008 209.292 119.985 226.22 119.875Z"/><path fill="#1C1A1B" transform="matrix(0.0996885 0 0 0.0987654 -8.77258 -9.48148)" d="M182.93 209.86C184.501 209.776 186.478 209.803 188.082 209.779C188.242 212.07 188.133 216.714 188.015 219.033C187.21 219.305 186.41 219.588 185.613 219.881C179.436 222.184 174.83 227.509 174.696 234.187C174.552 241.366 179.746 250.147 182.821 256.731L199.496 292.855C201.636 297.527 204.16 302.167 206.052 306.942C206.282 307.522 206.058 307.257 206.595 307.621C207.613 306.785 209.12 302.616 209.745 301.548C211.736 298.148 219.178 279.203 221.27 277.728C222.797 279.022 240.473 318.013 242.821 323.397C241.671 325.402 240.065 329.145 239.049 331.335L231.97 346.605C224.029 363.534 216.201 380.516 208.489 397.55C207.985 398.435 208.054 398.94 207.306 399.977C206.075 398.998 202.146 389.657 201.224 387.715L184.697 352.516L143.667 265.38L133.46 243.432C128.483 232.894 125.055 222.814 112.342 219.929C111.083 219.644 108.791 219.19 107.715 218.583C107.423 217.386 107.353 211.672 107.258 210.029C113.753 209.84 120.36 209.964 126.869 209.968L161.871 210.011C168.703 210.022 176.141 210.151 182.93 209.86Z"/></g></svg>